<svg width="24" height="24" viewBox="0 0 24 24" fill="none" xmlns="http://www.w3.org/2000/svg">
<path d="M20.2959 10.4541L12.7959 2.95406C12.6914 2.84918 12.5672 2.76596 12.4305 2.70918C12.2937 2.6524 12.1471 2.62317 11.9991 2.62317C11.851 2.62317 11.7044 2.6524 11.5676 2.70918C11.4309 2.76596 11.3067 2.84918 11.2022 2.95406L3.70219 10.4541C3.49195 10.6655 3.37427 10.9518 3.375 11.25V20.25C3.375 20.3495 3.41451 20.4448 3.48484 20.5152C3.55516 20.5855 3.65055 20.625 3.75 20.625H9.75C9.84946 20.625 9.94484 20.5855 10.0152 20.5152C10.0855 20.4448 10.125 20.3495 10.125 20.25V14.625H13.875V20.25C13.875 20.3495 13.9145 20.4448 13.9848 20.5152C14.0552 20.5855 14.1505 20.625 14.25 20.625H20.25C20.3495 20.625 20.4448 20.5855 20.5152 20.5152C20.5855 20.4448 20.625 20.3495 20.625 20.25V11.25C20.6251 11.1022 20.5961 10.9559 20.5397 10.8193C20.4832 10.6827 20.4004 10.5586 20.2959 10.4541ZM19.875 19.875H14.625V14.25C14.625 14.1505 14.5855 14.0552 14.5152 13.9848C14.4448 13.9145 14.3495 13.875 14.25 13.875H9.75C9.65055 13.875 9.55516 13.9145 9.48484 13.9848C9.41451 14.0552 9.375 14.1505 9.375 14.25V19.875H4.125V11.25C4.12496 11.2007 4.13463 11.1519 4.15345 11.1064C4.17227 11.0609 4.19988 11.0195 4.23469 10.9847L11.7347 3.48468C11.7695 3.44981 11.8109 3.42216 11.8564 3.40328C11.9019 3.38441 11.9507 3.3747 12 3.3747C12.0493 3.3747 12.0981 3.38441 12.1436 3.40328C12.1891 3.42216 12.2305 3.44981 12.2653 3.48468L19.7653 10.9847C19.8001 11.0195 19.8277 11.0609 19.8466 11.1064C19.8654 11.1519 19.875 11.2007 19.875 11.25V19.875Z" fill="black"/>
</svg>
