<svg width="24" height="24" viewBox="0 0 24 24" fill="none" xmlns="http://www.w3.org/2000/svg">
<path d="M20.2959 10.4542L12.7959 2.95418C12.6914 2.8493 12.5672 2.76608 12.4305 2.7093C12.2937 2.65252 12.1471 2.62329 11.9991 2.62329C11.851 2.62329 11.7044 2.65252 11.5676 2.7093C11.4309 2.76608 11.3067 2.8493 11.2022 2.95418L3.70219 10.4542C3.49195 10.6656 3.37427 10.9519 3.375 11.2501V20.2501C3.375 20.3496 3.41451 20.445 3.48484 20.5153C3.55516 20.5856 3.65055 20.6251 3.75 20.6251H9.75C9.84946 20.6251 9.94484 20.5856 10.0152 20.5153C10.0855 20.445 10.125 20.3496 10.125 20.2501V14.6251H13.875V20.2501C13.875 20.3496 13.9145 20.445 13.9848 20.5153C14.0552 20.5856 14.1505 20.6251 14.25 20.6251H20.25C20.3495 20.6251 20.4448 20.5856 20.5152 20.5153C20.5855 20.445 20.625 20.3496 20.625 20.2501V11.2501C20.6251 11.1023 20.5961 10.956 20.5397 10.8194C20.4832 10.6828 20.4004 10.5587 20.2959 10.4542ZM19.875 19.8751H14.625V14.2501C14.625 14.1507 14.5855 14.0553 14.5152 13.985C14.4448 13.9146 14.3495 13.8751 14.25 13.8751H9.75C9.65055 13.8751 9.55516 13.9146 9.48484 13.985C9.41451 14.0553 9.375 14.1507 9.375 14.2501V19.8751H4.125V11.2501C4.12496 11.2009 4.13463 11.1521 4.15345 11.1065C4.17227 11.061 4.19988 11.0197 4.23469 10.9848L11.7347 3.4848C11.7695 3.44994 11.8109 3.42228 11.8564 3.40341C11.9019 3.38453 11.9507 3.37482 12 3.37482C12.0493 3.37482 12.0981 3.38453 12.1436 3.40341C12.1891 3.42228 12.2305 3.44994 12.2653 3.4848L19.7653 10.9848C19.8001 11.0197 19.8277 11.061 19.8466 11.1065C19.8654 11.1521 19.875 11.2009 19.875 11.2501V19.8751Z" fill="#223192"/>
</svg>
