<svg width="280" height="70" viewBox="0 0 280 70" fill="none" xmlns="http://www.w3.org/2000/svg">
<path d="M7.104 12.8833C8.032 12.8833 9.152 12.8673 10.464 12.8353C11.808 12.8033 13.328 12.7873 15.024 12.7873C17.328 12.7873 19.472 13.2193 21.456 14.0833C23.472 14.9153 25.232 16.0833 26.736 17.5873C28.272 19.0593 29.456 20.7873 30.288 22.7713C31.152 24.7233 31.584 26.8193 31.584 29.0593C31.584 32.0033 31.088 34.4513 30.096 36.4033C29.136 38.3233 27.856 39.8433 26.256 40.9633C24.688 42.0513 22.992 42.8193 21.168 43.2673C19.344 43.7153 17.584 43.9393 15.888 43.9393C14.256 43.9393 12.896 43.9233 11.808 43.8913C10.72 43.8913 9.824 43.8753 9.12 43.8433C8.416 43.8433 7.76 43.8433 7.152 43.8433C6.256 43.8433 5.216 43.8433 4.032 43.8433C2.88 43.8753 1.84 43.9073 0.912 43.9393C0.784 43.7793 0.72 43.5073 0.72 43.1233C0.72 42.7393 0.784 42.4833 0.912 42.3553C2.032 42.2913 2.896 42.1793 3.504 42.0193C4.112 41.8593 4.528 41.4753 4.752 40.8673C4.976 40.2593 5.088 39.2993 5.088 37.9873V18.7393C5.088 17.3953 4.976 16.4353 4.752 15.8593C4.528 15.2513 4.112 14.8673 3.504 14.7073C2.896 14.5153 2.032 14.4033 0.912 14.3713C0.784 14.2113 0.72 13.9393 0.72 13.5553C0.72 13.1713 0.784 12.9153 0.912 12.7873C1.872 12.8193 2.928 12.8513 4.08 12.8833C5.232 12.8833 6.24 12.8833 7.104 12.8833ZM9.168 39.8113C9.168 40.3233 9.28 40.7713 9.504 41.1553C9.728 41.5073 10.208 41.7953 10.944 42.0193C11.68 42.2113 12.832 42.3073 14.4 42.3073C16.096 42.3073 17.696 42.1313 19.2 41.7793C20.704 41.4273 22.032 40.8033 23.184 39.9073C24.368 39.0113 25.296 37.7793 25.968 36.2113C26.64 34.6433 26.976 32.6433 26.976 30.2113C26.976 28.3553 26.736 26.4993 26.256 24.6433C25.808 22.7873 25.04 21.0913 23.952 19.5553C22.896 17.9873 21.488 16.7393 19.728 15.8113C17.968 14.8833 15.792 14.4193 13.2 14.4193C12.016 14.4193 11.04 14.6113 10.272 14.9953C9.536 15.3473 9.168 15.9393 9.168 16.7713V39.8113ZM52.1843 39.3793C52.7283 39.4113 53.0643 39.6673 53.1923 40.1473C52.2323 41.3953 51.0803 42.4033 49.7363 43.1713C48.4243 43.9393 46.8563 44.3233 45.0323 44.3233C43.3043 44.3233 41.8483 44.0513 40.6643 43.5073C39.5123 42.9633 38.5203 42.2113 37.6883 41.2513C36.8883 40.3233 36.3123 39.2513 35.9603 38.0353C35.6083 36.7873 35.4323 35.4913 35.4323 34.1473C35.4323 32.3233 35.7203 30.7073 36.2963 29.2993C36.9043 27.8913 37.6883 26.7233 38.6483 25.7953C39.6083 24.8353 40.6483 24.1153 41.7683 23.6353C42.8883 23.1233 43.9763 22.8673 45.0323 22.8673C47.2723 22.8673 48.9683 23.2833 50.1203 24.1153C51.2723 24.9473 52.0563 26.0033 52.4723 27.2833C52.9203 28.5633 53.1443 29.8753 53.1443 31.2193C53.1443 31.7633 52.8403 32.0353 52.2323 32.0353L39.4643 31.9393C39.4643 33.3153 39.5923 34.5633 39.8483 35.6833C40.1363 36.7713 40.5203 37.7153 41.0003 38.5153C41.7363 39.7313 42.5683 40.6113 43.4963 41.1553C44.4563 41.6993 45.3683 41.9713 46.2323 41.9713C47.6403 41.9713 48.7603 41.7633 49.5923 41.3473C50.4243 40.9313 51.2883 40.2753 52.1843 39.3793ZM39.6083 30.3073L48.2963 30.1633C48.7763 30.1633 49.0163 29.9393 49.0163 29.4913C49.0163 28.1473 48.8083 27.1073 48.3923 26.3713C47.9763 25.6353 47.4643 25.1393 46.8563 24.8833C46.2483 24.5953 45.6403 24.4513 45.0323 24.4513C44.7443 24.4513 44.3443 24.5153 43.8323 24.6433C43.3203 24.7393 42.7763 24.9793 42.2003 25.3633C41.6563 25.7153 41.1443 26.2913 40.6643 27.0913C40.1843 27.8913 39.8323 28.9633 39.6083 30.3073ZM70.3969 24.7393C70.2689 24.5793 70.2049 24.3073 70.2049 23.9233C70.2049 23.5393 70.2689 23.2833 70.3969 23.1553C71.0049 23.1873 71.6929 23.2193 72.4609 23.2513C73.2289 23.2513 74.0129 23.2513 74.8129 23.2513C75.4529 23.2513 76.0449 23.2513 76.5889 23.2513C77.1649 23.2193 77.6929 23.1873 78.1729 23.1553C78.3329 23.2833 78.4129 23.5393 78.4129 23.9233C78.4129 24.3073 78.3329 24.5793 78.1729 24.7393C76.8289 24.8673 75.9169 25.2353 75.4369 25.8433C74.9569 26.4193 74.4929 27.2353 74.0449 28.2913L67.6609 43.3153C67.3409 44.0513 66.9569 44.4193 66.5089 44.4193C65.9649 44.4193 65.5649 44.0833 65.3089 43.4113L59.1649 28.2433C58.8449 27.4433 58.5569 26.8033 58.3009 26.3233C58.0449 25.8433 57.6929 25.4913 57.2449 25.2673C56.8289 25.0113 56.1889 24.8353 55.3249 24.7393C55.1969 24.5793 55.1329 24.3073 55.1329 23.9233C55.1329 23.5393 55.1969 23.2833 55.3249 23.1553C56.0609 23.1873 56.7809 23.2193 57.4849 23.2513C58.2209 23.2513 58.9889 23.2513 59.7889 23.2513C60.5889 23.2513 61.3889 23.2513 62.1889 23.2513C63.0209 23.2193 63.8369 23.1873 64.6369 23.1553C64.7969 23.2833 64.8769 23.5393 64.8769 23.9233C64.8769 24.3073 64.7969 24.5793 64.6369 24.7393C63.3569 24.8993 62.6689 25.1873 62.5729 25.6033C62.5089 26.0193 62.7009 26.8033 63.1489 27.9553L66.6049 37.2193C66.9889 38.2113 67.2769 38.7233 67.4689 38.7553C67.6929 38.7873 67.9969 38.3233 68.3809 37.3633L72.2689 27.9553C72.7489 26.7393 72.8769 25.9233 72.6529 25.5073C72.4609 25.0913 71.7089 24.8353 70.3969 24.7393ZM96.261 44.3233C92.805 44.3233 89.941 43.6193 87.669 42.2113C85.397 40.8033 83.701 38.9473 82.581 36.6433C81.461 34.3073 80.901 31.7473 80.901 28.9633C80.901 26.4673 81.349 24.1153 82.245 21.9073C83.141 19.6673 84.389 17.8113 85.989 16.3393C87.397 15.0273 88.949 14.0193 90.645 13.3153C92.373 12.6113 94.261 12.2593 96.309 12.2593C98.293 12.2593 99.909 12.4193 101.157 12.7393C102.405 13.0593 103.461 13.3953 104.325 13.7473C105.189 14.0993 106.021 14.3233 106.821 14.4193C107.077 15.7313 107.285 16.9953 107.445 18.2113C107.605 19.3953 107.749 20.6113 107.877 21.8593C107.621 21.9873 107.365 22.0833 107.109 22.1473C106.853 22.2113 106.581 22.1953 106.293 22.0993C105.877 20.7233 105.269 19.4273 104.469 18.2113C103.669 16.9633 102.565 15.9553 101.157 15.1873C99.781 14.4193 97.989 14.0353 95.781 14.0353C94.533 14.0353 93.237 14.3873 91.893 15.0913C90.581 15.7633 89.317 16.8353 88.101 18.3073C87.237 19.3953 86.549 20.7713 86.037 22.4353C85.525 24.0993 85.269 25.9713 85.269 28.0513C85.269 29.8113 85.525 31.5393 86.037 33.2353C86.581 34.9313 87.333 36.4673 88.293 37.8433C89.285 39.2193 90.453 40.3233 91.797 41.1553C93.141 41.9553 94.613 42.3553 96.213 42.3553C98.453 42.3553 100.437 41.9553 102.165 41.1553C103.925 40.3233 105.653 38.9793 107.349 37.1233C107.829 37.1233 108.197 37.3633 108.453 37.8433C106.821 39.9873 104.965 41.6033 102.885 42.6913C100.805 43.7793 98.597 44.3233 96.261 44.3233ZM112.124 34.0033C112.124 32.4993 112.348 31.0753 112.796 29.7313C113.244 28.3553 113.9 27.1553 114.764 26.1313C115.66 25.1073 116.748 24.2913 118.028 23.6833C119.308 23.0753 120.732 22.7713 122.3 22.7713C124.124 22.7713 125.676 23.0913 126.956 23.7313C128.268 24.3713 129.308 25.2353 130.076 26.3233C130.876 27.3793 131.452 28.5473 131.804 29.8273C132.188 31.0753 132.38 32.3233 132.38 33.5713C132.38 35.0433 132.124 36.4993 131.612 37.9393C131.1 39.3473 130.316 40.5793 129.26 41.6353C128.428 42.4353 127.42 43.0913 126.236 43.6033C125.084 44.0833 123.74 44.3233 122.204 44.3233C119.932 44.3233 118.044 43.8113 116.54 42.7873C115.068 41.7313 113.964 40.4193 113.228 38.8513C112.492 37.2513 112.124 35.6353 112.124 34.0033ZM121.58 24.4513C120.14 24.4513 119.036 24.8673 118.268 25.6993C117.5 26.5313 116.972 27.5873 116.684 28.8673C116.396 30.1473 116.252 31.4913 116.252 32.8993C116.252 33.8273 116.364 34.8513 116.588 35.9713C116.812 37.0913 117.18 38.1633 117.692 39.1873C118.204 40.1793 118.876 41.0113 119.708 41.6833C120.572 42.3233 121.628 42.6433 122.876 42.6433C123.644 42.6433 124.444 42.4353 125.276 42.0193C126.108 41.6033 126.812 40.8513 127.388 39.7633C127.964 38.6753 128.252 37.1233 128.252 35.1073C128.252 31.6513 127.66 29.0113 126.476 27.1873C125.292 25.3633 123.66 24.4513 121.58 24.4513ZM143.176 26.6593C144.584 25.0273 145.944 23.9713 147.256 23.4913C148.6 23.0113 149.864 22.7713 151.048 22.7713C151.88 22.7713 152.648 22.9153 153.352 23.2033C154.056 23.4593 154.616 23.8593 155.032 24.4033C155.576 25.1393 155.928 26.0673 156.088 27.1873C156.248 28.3073 156.328 29.5233 156.328 30.8353V37.9873C156.328 39.2993 156.408 40.2593 156.568 40.8673C156.728 41.4433 157.032 41.8113 157.48 41.9713C157.96 42.1313 158.648 42.2593 159.544 42.3553C159.672 42.4833 159.736 42.7393 159.736 43.1233C159.736 43.5073 159.672 43.7793 159.544 43.9393C158.84 43.9073 158.056 43.8753 157.192 43.8433C156.328 43.8433 155.416 43.8433 154.456 43.8433C153.496 43.8433 152.616 43.8433 151.816 43.8433C151.048 43.8753 150.296 43.9073 149.56 43.9393C149.432 43.7793 149.368 43.5073 149.368 43.1233C149.368 42.7393 149.432 42.4833 149.56 42.3553C150.392 42.2593 151.016 42.1313 151.432 41.9713C151.88 41.8113 152.168 41.4433 152.296 40.8673C152.456 40.2593 152.536 39.2993 152.536 37.9873V30.6913C152.536 29.9553 152.504 29.2833 152.44 28.6753C152.376 28.0353 152.216 27.4753 151.96 26.9953C151.672 26.4513 151.288 26.0353 150.808 25.7473C150.36 25.4273 149.896 25.2673 149.416 25.2673C148.488 25.2673 147.512 25.5233 146.488 26.0353C145.464 26.5153 144.488 27.2033 143.56 28.0993C143.368 28.3233 143.176 28.5953 142.984 28.9153C142.824 29.2033 142.744 29.6033 142.744 30.1153V37.9873C142.744 39.2993 142.808 40.2593 142.936 40.8673C143.096 41.4433 143.384 41.8113 143.8 41.9713C144.248 42.1313 144.872 42.2593 145.672 42.3553C145.832 42.4833 145.912 42.7393 145.912 43.1233C145.912 43.5073 145.832 43.7793 145.672 43.9393C144.968 43.9073 144.232 43.8753 143.464 43.8433C142.696 43.8433 141.832 43.8433 140.872 43.8433C139.912 43.8433 138.968 43.8433 138.04 43.8433C137.144 43.8753 136.328 43.9073 135.592 43.9393C135.464 43.7793 135.4 43.5073 135.4 43.1233C135.4 42.7393 135.464 42.4833 135.592 42.3553C136.552 42.2593 137.272 42.1313 137.752 41.9713C138.232 41.8113 138.552 41.4433 138.712 40.8673C138.872 40.2593 138.952 39.2993 138.952 37.9873V28.6273C138.952 27.6993 138.872 27.0273 138.712 26.6113C138.552 26.1633 138.248 25.8593 137.8 25.6993C137.352 25.5393 136.696 25.4273 135.832 25.3633C135.8 25.2033 135.768 24.9793 135.736 24.6913C135.704 24.3713 135.704 24.1473 135.736 24.0193C137.4 23.7953 138.632 23.5713 139.432 23.3473C140.232 23.1233 140.968 22.8833 141.64 22.6273C141.832 22.6273 141.96 22.6753 142.024 22.7713C142.088 22.8353 142.152 22.9153 142.216 23.0113C142.344 23.2673 142.424 23.7793 142.456 24.5473C142.52 25.3153 142.568 26.0193 142.6 26.6593C142.6 26.8833 142.648 26.9793 142.744 26.9473C142.872 26.9153 143.016 26.8193 143.176 26.6593ZM169.191 26.6593C170.599 25.0273 171.959 23.9713 173.271 23.4913C174.615 23.0113 175.879 22.7713 177.063 22.7713C177.895 22.7713 178.663 22.9153 179.367 23.2033C180.071 23.4593 180.631 23.8593 181.047 24.4033C181.591 25.1393 181.943 26.0673 182.103 27.1873C182.263 28.3073 182.343 29.5233 182.343 30.8353V37.9873C182.343 39.2993 182.423 40.2593 182.583 40.8673C182.743 41.4433 183.047 41.8113 183.495 41.9713C183.975 42.1313 184.663 42.2593 185.559 42.3553C185.687 42.4833 185.751 42.7393 185.751 43.1233C185.751 43.5073 185.687 43.7793 185.559 43.9393C184.855 43.9073 184.071 43.8753 183.207 43.8433C182.343 43.8433 181.431 43.8433 180.471 43.8433C179.511 43.8433 178.631 43.8433 177.831 43.8433C177.063 43.8753 176.311 43.9073 175.575 43.9393C175.447 43.7793 175.383 43.5073 175.383 43.1233C175.383 42.7393 175.447 42.4833 175.575 42.3553C176.407 42.2593 177.031 42.1313 177.447 41.9713C177.895 41.8113 178.183 41.4433 178.311 40.8673C178.471 40.2593 178.551 39.2993 178.551 37.9873V30.6913C178.551 29.9553 178.519 29.2833 178.455 28.6753C178.391 28.0353 178.231 27.4753 177.975 26.9953C177.687 26.4513 177.303 26.0353 176.823 25.7473C176.375 25.4273 175.911 25.2673 175.431 25.2673C174.503 25.2673 173.527 25.5233 172.503 26.0353C171.479 26.5153 170.503 27.2033 169.575 28.0993C169.383 28.3233 169.191 28.5953 168.999 28.9153C168.839 29.2033 168.759 29.6033 168.759 30.1153V37.9873C168.759 39.2993 168.823 40.2593 168.951 40.8673C169.111 41.4433 169.399 41.8113 169.815 41.9713C170.263 42.1313 170.887 42.2593 171.687 42.3553C171.847 42.4833 171.927 42.7393 171.927 43.1233C171.927 43.5073 171.847 43.7793 171.687 43.9393C170.983 43.9073 170.247 43.8753 169.479 43.8433C168.711 43.8433 167.847 43.8433 166.887 43.8433C165.927 43.8433 164.983 43.8433 164.055 43.8433C163.159 43.8753 162.343 43.9073 161.607 43.9393C161.479 43.7793 161.415 43.5073 161.415 43.1233C161.415 42.7393 161.479 42.4833 161.607 42.3553C162.567 42.2593 163.287 42.1313 163.767 41.9713C164.247 41.8113 164.567 41.4433 164.727 40.8673C164.887 40.2593 164.967 39.2993 164.967 37.9873V28.6273C164.967 27.6993 164.887 27.0273 164.727 26.6113C164.567 26.1633 164.263 25.8593 163.815 25.6993C163.367 25.5393 162.711 25.4273 161.847 25.3633C161.815 25.2033 161.783 24.9793 161.751 24.6913C161.719 24.3713 161.719 24.1473 161.751 24.0193C163.415 23.7953 164.647 23.5713 165.447 23.3473C166.247 23.1233 166.983 22.8833 167.655 22.6273C167.847 22.6273 167.975 22.6753 168.039 22.7713C168.103 22.8353 168.167 22.9153 168.231 23.0113C168.359 23.2673 168.439 23.7793 168.471 24.5473C168.535 25.3153 168.583 26.0193 168.615 26.6593C168.615 26.8833 168.663 26.9793 168.759 26.9473C168.887 26.9153 169.031 26.8193 169.191 26.6593ZM204.903 39.3793C205.447 39.4113 205.783 39.6673 205.911 40.1473C204.951 41.3953 203.799 42.4033 202.455 43.1713C201.143 43.9393 199.575 44.3233 197.751 44.3233C196.023 44.3233 194.567 44.0513 193.383 43.5073C192.231 42.9633 191.239 42.2113 190.407 41.2513C189.607 40.3233 189.031 39.2513 188.679 38.0353C188.327 36.7873 188.151 35.4913 188.151 34.1473C188.151 32.3233 188.439 30.7073 189.015 29.2993C189.623 27.8913 190.407 26.7233 191.367 25.7953C192.327 24.8353 193.367 24.1153 194.487 23.6353C195.607 23.1233 196.695 22.8673 197.751 22.8673C199.991 22.8673 201.687 23.2833 202.839 24.1153C203.991 24.9473 204.775 26.0033 205.191 27.2833C205.639 28.5633 205.863 29.8753 205.863 31.2193C205.863 31.7633 205.559 32.0353 204.951 32.0353L192.183 31.9393C192.183 33.3153 192.311 34.5633 192.567 35.6833C192.855 36.7713 193.239 37.7153 193.719 38.5153C194.455 39.7313 195.287 40.6113 196.215 41.1553C197.175 41.6993 198.087 41.9713 198.951 41.9713C200.359 41.9713 201.479 41.7633 202.311 41.3473C203.143 40.9313 204.007 40.2753 204.903 39.3793ZM192.327 30.3073L201.015 30.1633C201.495 30.1633 201.735 29.9393 201.735 29.4913C201.735 28.1473 201.527 27.1073 201.111 26.3713C200.695 25.6353 200.183 25.1393 199.575 24.8833C198.967 24.5953 198.359 24.4513 197.751 24.4513C197.463 24.4513 197.063 24.5153 196.551 24.6433C196.039 24.7393 195.495 24.9793 194.919 25.3633C194.375 25.7153 193.863 26.2913 193.383 27.0913C192.903 27.8913 192.551 28.9633 192.327 30.3073ZM227.276 39.4753C226.092 41.4273 224.844 42.7233 223.532 43.3633C222.252 44.0033 220.892 44.3233 219.452 44.3233C216.444 44.3233 214.108 43.3633 212.444 41.4433C210.78 39.4913 209.948 36.9633 209.948 33.8593C209.948 31.5873 210.428 29.6193 211.388 27.9553C212.38 26.2913 213.628 25.0113 215.132 24.1153C216.668 23.2193 218.22 22.7713 219.788 22.7713C222.092 22.7713 223.884 23.2033 225.164 24.0673C226.476 24.9313 227.132 26.0193 227.132 27.3313C227.132 28.0673 226.86 28.6113 226.316 28.9633C225.804 29.2833 225.292 29.4433 224.78 29.4433C224.268 29.4433 223.852 29.3153 223.532 29.0593C223.212 28.8033 223.02 28.3553 222.956 27.7153C222.892 27.1393 222.764 26.5953 222.572 26.0833C222.412 25.5713 222.108 25.1553 221.66 24.8353C221.212 24.5153 220.508 24.3553 219.548 24.3553C217.98 24.3553 216.668 25.1073 215.612 26.6113C214.588 28.0833 214.076 30.1473 214.076 32.8033C214.076 34.6593 214.364 36.2753 214.94 37.6513C215.548 39.0273 216.332 40.0993 217.292 40.8673C218.284 41.6033 219.356 41.9713 220.508 41.9713C221.532 41.9713 222.54 41.7153 223.532 41.2033C224.556 40.6593 225.468 39.8593 226.268 38.8033C226.78 38.8673 227.116 39.0913 227.276 39.4753ZM230.767 23.2513H232.975C232.975 21.9073 232.959 20.8833 232.927 20.1793C232.927 19.4753 232.911 18.9793 232.879 18.6913C232.879 18.3713 232.863 18.1633 232.831 18.0673C232.831 17.9393 232.831 17.8113 232.831 17.6833C232.831 17.5233 232.927 17.3953 233.119 17.2993C233.343 17.2033 233.599 17.1073 233.887 17.0113C234.431 16.8513 234.975 16.6273 235.519 16.3393C236.031 16.0513 236.383 15.9073 236.575 15.9073C236.831 15.9073 236.959 16.0513 236.959 16.3393C236.959 16.3393 236.927 16.7873 236.863 17.6833C236.799 18.5793 236.767 19.8113 236.767 21.3793V23.2513H242.527C242.783 23.2513 242.911 23.3473 242.911 23.5393V24.4993C242.911 24.7233 242.783 24.8833 242.527 24.9793C242.271 25.0753 242.015 25.1233 241.759 25.1233H236.767V37.2673C236.767 38.7393 236.863 39.8433 237.055 40.5793C237.279 41.3153 237.711 41.6833 238.351 41.6833C238.991 41.6833 239.647 41.5873 240.319 41.3953C241.023 41.1713 241.679 40.8193 242.287 40.3393C242.767 40.3713 243.055 40.6433 243.151 41.1553C242.223 42.2113 241.183 43.0113 240.031 43.5553C238.911 44.0673 237.791 44.3233 236.671 44.3233C235.583 44.3233 234.687 43.9553 233.983 43.2193C233.311 42.4833 232.975 41.2673 232.975 39.5713V25.1233H230.143C229.983 25.1233 229.903 25.0273 229.903 24.8353V24.2113C229.903 24.0193 229.967 23.8113 230.095 23.5873C230.223 23.3633 230.447 23.2513 230.767 23.2513Z" fill="black"/>
</svg>
