<svg width="251" height="33" viewBox="0 0 251 33" fill="none" xmlns="http://www.w3.org/2000/svg">
<path d="M0.152 32L0.0560001 31.904V30.848C0.0560001 30.56 0.184 30.416 0.44 30.416H1.112C2.072 30.416 2.744 30.256 3.128 29.936C3.544 29.616 3.752 29.072 3.752 28.304V4.688C3.752 3.92 3.544 3.376 3.128 3.056C2.744 2.736 2.072 2.576 1.112 2.576H0.44C0.184 2.576 0.0560001 2.448 0.0560001 2.192V1.088L0.152 0.991999H14.36C16.792 0.991999 19.048 1.424 21.128 2.288C23.24 3.12 25.08 4.288 26.648 5.792C28.248 7.264 29.48 8.976 30.344 10.928C31.24 12.88 31.688 14.96 31.688 17.168C31.688 20.112 31.176 22.544 30.152 24.464C29.128 26.384 27.784 27.904 26.12 29.024C24.488 30.112 22.712 30.88 20.792 31.328C18.872 31.776 17.016 32 15.224 32H0.152ZM9.608 28.4C9.608 28.88 9.688 29.248 9.848 29.504C10.04 29.728 10.424 29.888 11 29.984C11.608 30.048 12.536 30.08 13.784 30.08C15.32 30.08 16.776 29.904 18.152 29.552C19.56 29.2 20.792 28.608 21.848 27.776C22.936 26.912 23.784 25.712 24.392 24.176C25.032 22.64 25.352 20.704 25.352 18.368C25.352 16.544 25.128 14.736 24.68 12.944C24.232 11.12 23.512 9.456 22.52 7.952C21.528 6.416 20.216 5.2 18.584 4.304C16.952 3.376 14.952 2.912 12.584 2.912C11.72 2.912 11 3.008 10.424 3.2C9.88 3.36 9.608 3.824 9.608 4.592V28.4ZM52.7435 26.768L53.9435 27.776C53.0475 29.568 51.8315 30.8 50.2955 31.472C48.7595 32.144 47.1595 32.48 45.4955 32.48C43.0635 32.48 41.0955 32.016 39.5915 31.088C38.1195 30.16 37.0315 28.944 36.3275 27.44C35.6555 25.904 35.3195 24.256 35.3195 22.496C35.3195 20.032 35.8315 17.92 36.8555 16.16C37.8795 14.4 39.1755 13.056 40.7435 12.128C42.3435 11.168 43.9755 10.688 45.6395 10.688C48.0075 10.688 49.8155 11.12 51.0635 11.984C52.3115 12.848 53.1755 13.936 53.6555 15.248C54.1355 16.528 54.3755 17.856 54.3755 19.232C54.3755 19.904 53.7515 20.24 52.5035 20.24H40.8395V21.488C40.8395 23.056 41.1275 24.464 41.7035 25.712C42.2795 26.96 43.0475 27.952 44.0075 28.688C44.9995 29.424 46.1195 29.792 47.3675 29.792C48.2955 29.792 49.1915 29.568 50.0555 29.12C50.9515 28.64 51.8475 27.856 52.7435 26.768ZM41.0795 18.32H48.7595C48.8235 18.256 48.8555 18.08 48.8555 17.792C48.8555 16.512 48.6635 15.504 48.2795 14.768C47.9275 14.032 47.4955 13.504 46.9835 13.184C46.5035 12.864 46.0395 12.704 45.5915 12.704C45.2715 12.704 44.7915 12.832 44.1515 13.088C43.5115 13.344 42.8875 13.872 42.2795 14.672C41.7035 15.472 41.3035 16.688 41.0795 18.32ZM76.2684 15.104L70.6044 30.032C70.2204 31.024 69.8524 31.696 69.5004 32.048C69.1804 32.4 68.7484 32.576 68.2044 32.576C67.5644 32.576 67.0204 32.4 66.5724 32.048C66.1564 31.696 65.7564 31.04 65.3724 30.08L59.8524 15.968C59.5644 15.2 59.1804 14.496 58.7004 13.856C58.2524 13.184 57.4844 12.8 56.3964 12.704C56.0764 12.672 55.9164 12.56 55.9164 12.368V11.168L56.0604 11.072C56.0604 11.072 56.3324 11.088 56.8764 11.12C57.4204 11.12 58.0604 11.136 58.7964 11.168C59.5644 11.168 60.2684 11.168 60.9084 11.168C61.5804 11.168 62.3804 11.168 63.3084 11.168C64.2364 11.136 65.0524 11.12 65.7564 11.12C66.4604 11.088 66.8124 11.072 66.8124 11.072L67.0044 11.168V12.32C67.0044 12.48 66.9564 12.592 66.8604 12.656C66.7644 12.688 66.6844 12.704 66.6204 12.704L65.8044 12.8C65.0684 12.896 64.6524 13.088 64.5564 13.376C64.4924 13.632 64.5884 14.128 64.8444 14.864L69.5964 26.96L73.9164 14.816C74.1404 14.144 74.0604 13.696 73.6764 13.472C73.3244 13.216 72.7164 12.976 71.8524 12.752L71.6604 12.704C71.4044 12.64 71.2764 12.528 71.2764 12.368V11.216L71.4684 11.072C71.4684 11.072 71.7404 11.088 72.2844 11.12C72.8604 11.12 73.5324 11.136 74.3004 11.168C75.0684 11.168 75.7724 11.168 76.4124 11.168C76.8924 11.168 77.4204 11.168 77.9964 11.168C78.5724 11.136 79.0684 11.12 79.4844 11.12C79.9004 11.088 80.1084 11.072 80.1084 11.072L80.2044 11.168V12.272C80.2044 12.528 80.0284 12.672 79.6764 12.704C78.9724 12.8 78.3164 12.992 77.7084 13.28C77.1004 13.568 76.6204 14.176 76.2684 15.104ZM99.0736 32.48C96.3536 32.48 93.9696 32.048 91.9216 31.184C89.9056 30.288 88.2256 29.088 86.8816 27.584C85.5376 26.08 84.5296 24.4 83.8576 22.544C83.2176 20.688 82.8976 18.8 82.8976 16.88C82.8976 14.512 83.3136 12.336 84.1456 10.352C85.0096 8.336 86.1776 6.592 87.6496 5.12C89.1536 3.616 90.8816 2.464 92.8336 1.664C94.8176 0.831998 96.9136 0.415998 99.1216 0.415998C100.722 0.415998 102.05 0.527998 103.106 0.751999C104.194 0.943998 105.106 1.184 105.842 1.472C106.578 1.76 107.234 2.016 107.81 2.24C108.386 2.432 108.978 2.528 109.586 2.528C109.682 3.904 109.826 5.28 110.018 6.656C110.21 8 110.418 9.328 110.642 10.64L108.818 11.024C108.338 9.488 107.73 8.064 106.994 6.752C106.258 5.44 105.266 4.384 104.018 3.584C102.802 2.784 101.17 2.384 99.1216 2.384C97.9696 2.384 96.8016 2.656 95.6176 3.2C94.4336 3.712 93.3456 4.528 92.3536 5.648C91.3936 6.736 90.6096 8.144 90.0016 9.872C89.4256 11.568 89.1376 13.6 89.1376 15.968C89.1376 17.664 89.3296 19.36 89.7136 21.056C90.1296 22.752 90.7376 24.304 91.5376 25.712C92.3696 27.12 93.4096 28.256 94.6576 29.12C95.9056 29.952 97.3616 30.368 99.0256 30.368C100.978 30.368 102.85 29.936 104.642 29.072C106.434 28.208 108.258 26.736 110.114 24.656L111.554 25.808C109.922 27.952 108.066 29.6 105.986 30.752C103.938 31.904 101.634 32.48 99.0736 32.48ZM114.866 22.064C114.866 19.856 115.282 17.904 116.114 16.208C116.978 14.48 118.21 13.136 119.81 12.176C121.442 11.184 123.41 10.688 125.714 10.688C127.666 10.688 129.33 11.024 130.706 11.696C132.082 12.336 133.186 13.2 134.018 14.288C134.882 15.344 135.506 16.528 135.89 17.84C136.306 19.12 136.514 20.384 136.514 21.632C136.514 22.848 136.29 24.096 135.842 25.376C135.426 26.624 134.77 27.792 133.874 28.88C132.978 29.968 131.842 30.848 130.466 31.52C129.122 32.16 127.522 32.48 125.666 32.48C123.33 32.48 121.346 31.952 119.714 30.896C118.114 29.84 116.898 28.512 116.066 26.912C115.266 25.312 114.866 23.696 114.866 22.064ZM125.234 12.656C124.21 12.656 123.362 13.072 122.69 13.904C122.018 14.736 121.522 15.792 121.202 17.072C120.882 18.32 120.722 19.632 120.722 21.008C120.722 21.904 120.834 22.896 121.058 23.984C121.282 25.04 121.618 26.064 122.066 27.056C122.546 28.016 123.138 28.816 123.842 29.456C124.578 30.096 125.442 30.416 126.434 30.416C127.01 30.416 127.634 30.24 128.306 29.888C128.978 29.504 129.538 28.8 129.986 27.776C130.466 26.752 130.706 25.216 130.706 23.168C130.706 19.744 130.194 17.136 129.17 15.344C128.178 13.552 126.866 12.656 125.234 12.656ZM148.109 13.712C149.325 12.784 150.541 12.048 151.757 11.504C153.005 10.96 154.205 10.688 155.357 10.688C157.085 10.688 158.365 11.04 159.197 11.744C160.029 12.416 160.573 13.328 160.829 14.48C161.085 15.632 161.213 16.944 161.213 18.416V28.352C161.213 29.024 161.421 29.488 161.837 29.744C162.253 29.968 162.829 30.176 163.565 30.368L163.949 30.464C164.205 30.528 164.333 30.672 164.333 30.896V32L164.237 32.096C164.237 32.096 163.885 32.08 163.181 32.048C162.509 32.048 161.725 32.032 160.829 32C159.933 32 159.165 32 158.525 32C157.949 32 157.229 32 156.365 32C155.533 32.032 154.781 32.048 154.109 32.048C153.469 32.08 153.149 32.096 153.149 32.096L153.053 32V30.896C153.053 30.672 153.181 30.528 153.437 30.464L153.629 30.416C154.365 30.224 154.925 30 155.309 29.744C155.725 29.488 155.933 29.024 155.933 28.352V18.08C155.933 16.448 155.805 15.264 155.549 14.528C155.325 13.76 154.781 13.376 153.917 13.376C152.445 13.376 150.509 14.128 148.109 15.632V28.352C148.109 28.992 148.301 29.456 148.685 29.744C149.101 30 149.677 30.224 150.413 30.416L150.605 30.464C150.861 30.528 150.989 30.672 150.989 30.896V32L150.893 32.096C150.893 32.096 150.557 32.08 149.885 32.048C149.245 32.048 148.493 32.032 147.629 32C146.765 32 146.013 32 145.373 32C144.829 32 144.109 32 143.213 32C142.317 32.032 141.517 32.048 140.813 32.048C140.141 32.08 139.805 32.096 139.805 32.096L139.709 32V30.896C139.709 30.672 139.837 30.528 140.093 30.464L140.525 30.368C141.293 30.208 141.869 30 142.253 29.744C142.637 29.488 142.829 29.024 142.829 28.352V16.592C142.829 15.376 142.733 14.624 142.541 14.336C142.381 14.016 142.125 13.84 141.773 13.808L139.805 13.616L139.709 11.984C141.405 11.76 142.973 11.52 144.413 11.264C145.885 11.008 147.005 10.768 147.773 10.544C147.837 10.544 147.901 10.56 147.965 10.592C148.061 10.592 148.109 10.624 148.109 10.688L148.013 13.712H148.109ZM175.156 13.712C176.372 12.784 177.588 12.048 178.804 11.504C180.052 10.96 181.252 10.688 182.404 10.688C184.132 10.688 185.412 11.04 186.244 11.744C187.076 12.416 187.62 13.328 187.876 14.48C188.132 15.632 188.26 16.944 188.26 18.416V28.352C188.26 29.024 188.468 29.488 188.884 29.744C189.3 29.968 189.876 30.176 190.612 30.368L190.996 30.464C191.252 30.528 191.38 30.672 191.38 30.896V32L191.284 32.096C191.284 32.096 190.932 32.08 190.228 32.048C189.556 32.048 188.772 32.032 187.876 32C186.98 32 186.212 32 185.572 32C184.996 32 184.276 32 183.412 32C182.58 32.032 181.828 32.048 181.156 32.048C180.516 32.08 180.196 32.096 180.196 32.096L180.1 32V30.896C180.1 30.672 180.228 30.528 180.484 30.464L180.676 30.416C181.412 30.224 181.972 30 182.356 29.744C182.772 29.488 182.98 29.024 182.98 28.352V18.08C182.98 16.448 182.852 15.264 182.596 14.528C182.372 13.76 181.828 13.376 180.964 13.376C179.492 13.376 177.556 14.128 175.156 15.632V28.352C175.156 28.992 175.348 29.456 175.732 29.744C176.148 30 176.724 30.224 177.46 30.416L177.652 30.464C177.908 30.528 178.036 30.672 178.036 30.896V32L177.94 32.096C177.94 32.096 177.604 32.08 176.932 32.048C176.292 32.048 175.54 32.032 174.676 32C173.812 32 173.06 32 172.42 32C171.876 32 171.156 32 170.26 32C169.364 32.032 168.564 32.048 167.86 32.048C167.188 32.08 166.852 32.096 166.852 32.096L166.756 32V30.896C166.756 30.672 166.884 30.528 167.14 30.464L167.572 30.368C168.34 30.208 168.916 30 169.3 29.744C169.684 29.488 169.876 29.024 169.876 28.352V16.592C169.876 15.376 169.78 14.624 169.588 14.336C169.428 14.016 169.172 13.84 168.82 13.808L166.852 13.616L166.756 11.984C168.452 11.76 170.02 11.52 171.46 11.264C172.932 11.008 174.052 10.768 174.82 10.544C174.884 10.544 174.948 10.56 175.012 10.592C175.108 10.592 175.156 10.624 175.156 10.688L175.06 13.712H175.156ZM211.275 26.768L212.475 27.776C211.579 29.568 210.363 30.8 208.827 31.472C207.291 32.144 205.691 32.48 204.027 32.48C201.595 32.48 199.627 32.016 198.123 31.088C196.651 30.16 195.563 28.944 194.859 27.44C194.187 25.904 193.851 24.256 193.851 22.496C193.851 20.032 194.363 17.92 195.387 16.16C196.411 14.4 197.707 13.056 199.275 12.128C200.875 11.168 202.507 10.688 204.171 10.688C206.539 10.688 208.347 11.12 209.595 11.984C210.843 12.848 211.707 13.936 212.187 15.248C212.667 16.528 212.907 17.856 212.907 19.232C212.907 19.904 212.283 20.24 211.035 20.24H199.371V21.488C199.371 23.056 199.659 24.464 200.235 25.712C200.811 26.96 201.579 27.952 202.539 28.688C203.531 29.424 204.651 29.792 205.899 29.792C206.827 29.792 207.723 29.568 208.587 29.12C209.483 28.64 210.379 27.856 211.275 26.768ZM199.611 18.32H207.291C207.355 18.256 207.387 18.08 207.387 17.792C207.387 16.512 207.195 15.504 206.811 14.768C206.459 14.032 206.027 13.504 205.515 13.184C205.035 12.864 204.571 12.704 204.123 12.704C203.803 12.704 203.323 12.832 202.683 13.088C202.043 13.344 201.419 13.872 200.811 14.672C200.235 15.472 199.835 16.688 199.611 18.32ZM234.16 27.824C233.456 29.296 232.448 30.448 231.136 31.28C229.824 32.08 228.32 32.48 226.624 32.48C223.232 32.48 220.688 31.568 218.992 29.744C217.296 27.92 216.448 25.456 216.448 22.352C216.448 20.048 216.912 18.032 217.84 16.304C218.8 14.544 220.064 13.168 221.632 12.176C223.2 11.184 224.928 10.688 226.816 10.688C229.44 10.688 231.36 11.2 232.576 12.224C233.792 13.216 234.4 14.368 234.4 15.68C234.4 16.416 234.192 17.056 233.776 17.6C233.36 18.112 232.768 18.368 232 18.368C231.232 18.368 230.592 18.16 230.08 17.744C229.6 17.296 229.328 16.752 229.264 16.112C229.2 15.344 228.976 14.592 228.592 13.856C228.208 13.088 227.552 12.704 226.624 12.704C225.344 12.704 224.24 13.456 223.312 14.96C222.384 16.432 221.92 18.496 221.92 21.152C221.92 22.88 222.192 24.416 222.736 25.76C223.28 27.072 224 28.112 224.896 28.88C225.824 29.648 226.816 30.032 227.872 30.032C228.768 30.032 229.616 29.808 230.416 29.36C231.248 28.88 232.176 28.064 233.2 26.912L234.16 27.824ZM245.083 13.424V25.52C245.083 27.088 245.211 28.064 245.467 28.448C245.723 28.832 246.011 29.024 246.331 29.024C246.811 29.024 247.291 28.976 247.771 28.88C248.283 28.752 248.891 28.4 249.595 27.824L250.699 28.928C248.907 31.296 246.651 32.48 243.931 32.48C242.747 32.48 241.755 32.112 240.955 31.376C240.187 30.608 239.803 29.344 239.803 27.584V13.424H237.355C236.971 13.424 236.731 13.392 236.635 13.328C236.539 13.264 236.491 13.168 236.491 13.04V11.552C236.491 11.392 236.667 11.296 237.019 11.264C237.403 11.2 237.835 11.168 238.315 11.168C239.531 11.168 240.315 10.624 240.667 9.536C241.019 8.416 241.195 6.88 241.195 4.928L245.083 3.44V11.168H249.643C250.091 11.168 250.379 11.216 250.507 11.312C250.635 11.376 250.699 11.488 250.699 11.648V12.608C250.699 12.896 250.507 13.104 250.123 13.232C249.771 13.36 249.371 13.424 248.923 13.424H245.083Z" fill="black"/>
</svg>
