<svg width="45" height="17" viewBox="0 0 45 17" fill="none" xmlns="http://www.w3.org/2000/svg">
<path d="M1.924 3.615C2.17533 3.615 2.47867 3.61067 2.834 3.602C3.198 3.59333 3.60967 3.589 4.069 3.589C4.693 3.589 5.27367 3.706 5.811 3.94C6.357 4.16533 6.83367 4.48167 7.241 4.889C7.657 5.28767 7.97767 5.75567 8.203 6.293C8.437 6.82167 8.554 7.38933 8.554 7.996C8.554 8.79333 8.41967 9.45633 8.151 9.985C7.891 10.505 7.54433 10.9167 7.111 11.22C6.68633 11.5147 6.227 11.7227 5.733 11.844C5.239 11.9653 4.76233 12.026 4.303 12.026C3.861 12.026 3.49267 12.0217 3.198 12.013C2.90333 12.013 2.66067 12.0087 2.47 12C2.27933 12 2.10167 12 1.937 12C1.69433 12 1.41267 12 1.092 12C0.78 12.0087 0.498333 12.0173 0.247 12.026C0.212333 11.9827 0.195 11.909 0.195 11.805C0.195 11.701 0.212333 11.6317 0.247 11.597C0.550333 11.5797 0.784333 11.5493 0.949 11.506C1.11367 11.4627 1.22633 11.3587 1.287 11.194C1.34767 11.0293 1.378 10.7693 1.378 10.414V5.201C1.378 4.837 1.34767 4.577 1.287 4.421C1.22633 4.25633 1.11367 4.15233 0.949 4.109C0.784333 4.057 0.550333 4.02667 0.247 4.018C0.212333 3.97467 0.195 3.901 0.195 3.797C0.195 3.693 0.212333 3.62367 0.247 3.589C0.507 3.59767 0.793 3.60633 1.105 3.615C1.417 3.615 1.69 3.615 1.924 3.615ZM2.483 10.908C2.483 11.0467 2.51333 11.168 2.574 11.272C2.63467 11.3673 2.76467 11.4453 2.964 11.506C3.16333 11.558 3.47533 11.584 3.9 11.584C4.35933 11.584 4.79267 11.5363 5.2 11.441C5.60733 11.3457 5.967 11.1767 6.279 10.934C6.59967 10.6913 6.851 10.3577 7.033 9.933C7.215 9.50833 7.306 8.96667 7.306 8.308C7.306 7.80533 7.241 7.30267 7.111 6.8C6.98967 6.29733 6.78167 5.838 6.487 5.422C6.201 4.99733 5.81967 4.65933 5.343 4.408C4.86633 4.15667 4.277 4.031 3.575 4.031C3.25433 4.031 2.99 4.083 2.782 4.187C2.58267 4.28233 2.483 4.44267 2.483 4.668V10.908ZM14.1332 10.791C14.2806 10.7997 14.3716 10.869 14.4062 10.999C14.1462 11.337 13.8342 11.61 13.4702 11.818C13.1149 12.026 12.6902 12.13 12.1962 12.13C11.7282 12.13 11.3339 12.0563 11.0132 11.909C10.7012 11.7617 10.4326 11.558 10.2072 11.298C9.99057 11.0467 9.83457 10.7563 9.73923 10.427C9.6439 10.089 9.59623 9.738 9.59623 9.374C9.59623 8.88 9.67423 8.44233 9.83023 8.061C9.9949 7.67967 10.2072 7.36333 10.4672 7.112C10.7272 6.852 11.0089 6.657 11.3122 6.527C11.6156 6.38833 11.9102 6.319 12.1962 6.319C12.8029 6.319 13.2622 6.43167 13.5742 6.657C13.8862 6.88233 14.0986 7.16833 14.2112 7.515C14.3326 7.86167 14.3932 8.217 14.3932 8.581C14.3932 8.72833 14.3109 8.802 14.1462 8.802L10.6882 8.776C10.6882 9.14867 10.7229 9.48667 10.7922 9.79C10.8702 10.0847 10.9742 10.3403 11.1042 10.557C11.3036 10.8863 11.5289 11.1247 11.7802 11.272C12.0402 11.4193 12.2872 11.493 12.5212 11.493C12.9026 11.493 13.2059 11.4367 13.4312 11.324C13.6566 11.2113 13.8906 11.0337 14.1332 10.791ZM10.7272 8.334L13.0802 8.295C13.2102 8.295 13.2752 8.23433 13.2752 8.113C13.2752 7.749 13.2189 7.46733 13.1062 7.268C12.9936 7.06867 12.8549 6.93433 12.6902 6.865C12.5256 6.787 12.3609 6.748 12.1962 6.748C12.1182 6.748 12.0099 6.76533 11.8712 6.8C11.7326 6.826 11.5852 6.891 11.4292 6.995C11.2819 7.09033 11.1432 7.24633 11.0132 7.463C10.8832 7.67967 10.7879 7.97 10.7272 8.334ZM19.0658 6.826C19.0312 6.78267 19.0138 6.709 19.0138 6.605C19.0138 6.501 19.0312 6.43167 19.0658 6.397C19.2305 6.40567 19.4168 6.41433 19.6248 6.423C19.8328 6.423 20.0452 6.423 20.2618 6.423C20.4352 6.423 20.5955 6.423 20.7428 6.423C20.8988 6.41433 21.0418 6.40567 21.1718 6.397C21.2152 6.43167 21.2368 6.501 21.2368 6.605C21.2368 6.709 21.2152 6.78267 21.1718 6.826C20.8078 6.86067 20.5608 6.96033 20.4308 7.125C20.3008 7.281 20.1752 7.502 20.0538 7.788L18.3248 11.857C18.2382 12.0563 18.1342 12.156 18.0128 12.156C17.8655 12.156 17.7572 12.065 17.6878 11.883L16.0238 7.775C15.9372 7.55833 15.8592 7.385 15.7898 7.255C15.7205 7.125 15.6252 7.02967 15.5038 6.969C15.3912 6.89967 15.2178 6.852 14.9838 6.826C14.9492 6.78267 14.9318 6.709 14.9318 6.605C14.9318 6.501 14.9492 6.43167 14.9838 6.397C15.1832 6.40567 15.3782 6.41433 15.5688 6.423C15.7682 6.423 15.9762 6.423 16.1928 6.423C16.4095 6.423 16.6262 6.423 16.8428 6.423C17.0682 6.41433 17.2892 6.40567 17.5058 6.397C17.5492 6.43167 17.5708 6.501 17.5708 6.605C17.5708 6.709 17.5492 6.78267 17.5058 6.826C17.1592 6.86933 16.9728 6.94733 16.9468 7.06C16.9295 7.17267 16.9815 7.385 17.1028 7.697L18.0388 10.206C18.1428 10.4747 18.2208 10.6133 18.2728 10.622C18.3335 10.6307 18.4158 10.505 18.5198 10.245L19.5728 7.697C19.7028 7.36767 19.7375 7.14667 19.6768 7.034C19.6248 6.92133 19.4212 6.852 19.0658 6.826ZM26.0707 12.13C25.1347 12.13 24.359 11.9393 23.7437 11.558C23.1284 11.1767 22.669 10.674 22.3657 10.05C22.0624 9.41733 21.9107 8.724 21.9107 7.97C21.9107 7.294 22.032 6.657 22.2747 6.059C22.5174 5.45233 22.8554 4.94967 23.2887 4.551C23.67 4.19567 24.0904 3.92267 24.5497 3.732C25.0177 3.54133 25.529 3.446 26.0837 3.446C26.621 3.446 27.0587 3.48933 27.3967 3.576C27.7347 3.66267 28.0207 3.75367 28.2547 3.849C28.4887 3.94433 28.714 4.005 28.9307 4.031C29 4.38633 29.0564 4.72867 29.0997 5.058C29.143 5.37867 29.182 5.708 29.2167 6.046C29.1474 6.08067 29.078 6.10667 29.0087 6.124C28.9394 6.14133 28.8657 6.137 28.7877 6.111C28.675 5.73833 28.5104 5.38733 28.2937 5.058C28.077 4.72 27.778 4.447 27.3967 4.239C27.024 4.031 26.5387 3.927 25.9407 3.927C25.6027 3.927 25.2517 4.02233 24.8877 4.213C24.5324 4.395 24.19 4.68533 23.8607 5.084C23.6267 5.37867 23.4404 5.75133 23.3017 6.202C23.163 6.65267 23.0937 7.15967 23.0937 7.723C23.0937 8.19967 23.163 8.66767 23.3017 9.127C23.449 9.58633 23.6527 10.0023 23.9127 10.375C24.1814 10.7477 24.4977 11.0467 24.8617 11.272C25.2257 11.4887 25.6244 11.597 26.0577 11.597C26.6644 11.597 27.2017 11.4887 27.6697 11.272C28.1464 11.0467 28.6144 10.6827 29.0737 10.18C29.2037 10.18 29.3034 10.245 29.3727 10.375C28.9307 10.9557 28.428 11.3933 27.8647 11.688C27.3014 11.9827 26.7034 12.13 26.0707 12.13ZM30.367 9.335C30.367 8.92767 30.4277 8.542 30.549 8.178C30.6703 7.80533 30.848 7.48033 31.082 7.203C31.3247 6.92567 31.6193 6.70467 31.966 6.54C32.3127 6.37533 32.6983 6.293 33.123 6.293C33.617 6.293 34.0373 6.37967 34.384 6.553C34.7393 6.72633 35.021 6.96033 35.229 7.255C35.4457 7.541 35.6017 7.85733 35.697 8.204C35.801 8.542 35.853 8.88 35.853 9.218C35.853 9.61667 35.7837 10.011 35.645 10.401C35.5063 10.7823 35.294 11.116 35.008 11.402C34.7827 11.6187 34.5097 11.7963 34.189 11.935C33.877 12.065 33.513 12.13 33.097 12.13C32.4817 12.13 31.9703 11.9913 31.563 11.714C31.1643 11.428 30.8653 11.0727 30.666 10.648C30.4667 10.2147 30.367 9.777 30.367 9.335ZM32.928 6.748C32.538 6.748 32.239 6.86067 32.031 7.086C31.823 7.31133 31.68 7.59733 31.602 7.944C31.524 8.29067 31.485 8.65467 31.485 9.036C31.485 9.28733 31.5153 9.56467 31.576 9.868C31.6367 10.1713 31.7363 10.4617 31.875 10.739C32.0137 11.0077 32.1957 11.233 32.421 11.415C32.655 11.5883 32.941 11.675 33.279 11.675C33.487 11.675 33.7037 11.6187 33.929 11.506C34.1543 11.3933 34.345 11.1897 34.501 10.895C34.657 10.6003 34.735 10.18 34.735 9.634C34.735 8.698 34.5747 7.983 34.254 7.489C33.9333 6.995 33.4913 6.748 32.928 6.748ZM38.7768 7.346C39.1581 6.904 39.5264 6.618 39.8818 6.488C40.2458 6.358 40.5881 6.293 40.9088 6.293C41.1341 6.293 41.3421 6.332 41.5328 6.41C41.7234 6.47933 41.8751 6.58767 41.9878 6.735C42.1351 6.93433 42.2304 7.18567 42.2738 7.489C42.3171 7.79233 42.3388 8.12167 42.3388 8.477V10.414C42.3388 10.7693 42.3604 11.0293 42.4038 11.194C42.4471 11.35 42.5294 11.4497 42.6508 11.493C42.7808 11.5363 42.9671 11.571 43.2098 11.597C43.2444 11.6317 43.2618 11.701 43.2618 11.805C43.2618 11.909 43.2444 11.9827 43.2098 12.026C43.0191 12.0173 42.8068 12.0087 42.5728 12C42.3388 12 42.0918 12 41.8318 12C41.5718 12 41.3334 12 41.1168 12C40.9088 12.0087 40.7051 12.0173 40.5058 12.026C40.4711 11.9827 40.4538 11.909 40.4538 11.805C40.4538 11.701 40.4711 11.6317 40.5058 11.597C40.7311 11.571 40.9001 11.5363 41.0128 11.493C41.1341 11.4497 41.2121 11.35 41.2468 11.194C41.2901 11.0293 41.3118 10.7693 41.3118 10.414V8.438C41.3118 8.23867 41.3031 8.05667 41.2858 7.892C41.2684 7.71867 41.2251 7.567 41.1558 7.437C41.0778 7.28967 40.9738 7.177 40.8438 7.099C40.7224 7.01233 40.5968 6.969 40.4668 6.969C40.2154 6.969 39.9511 7.03833 39.6738 7.177C39.3964 7.307 39.1321 7.49333 38.8808 7.736C38.8288 7.79667 38.7768 7.87033 38.7248 7.957C38.6814 8.035 38.6598 8.14333 38.6598 8.282V10.414C38.6598 10.7693 38.6771 11.0293 38.7118 11.194C38.7551 11.35 38.8331 11.4497 38.9458 11.493C39.0671 11.5363 39.2361 11.571 39.4528 11.597C39.4961 11.6317 39.5178 11.701 39.5178 11.805C39.5178 11.909 39.4961 11.9827 39.4528 12.026C39.2621 12.0173 39.0628 12.0087 38.8548 12C38.6468 12 38.4128 12 38.1528 12C37.8928 12 37.6371 12 37.3858 12C37.1431 12.0087 36.9221 12.0173 36.7228 12.026C36.6881 11.9827 36.6708 11.909 36.6708 11.805C36.6708 11.701 36.6881 11.6317 36.7228 11.597C36.9828 11.571 37.1778 11.5363 37.3078 11.493C37.4378 11.4497 37.5244 11.35 37.5678 11.194C37.6111 11.0293 37.6328 10.7693 37.6328 10.414V7.879C37.6328 7.62767 37.6111 7.44567 37.5678 7.333C37.5244 7.21167 37.4421 7.12933 37.3208 7.086C37.1994 7.04267 37.0218 7.01233 36.7878 6.995C36.7791 6.95167 36.7704 6.891 36.7618 6.813C36.7531 6.72633 36.7531 6.66567 36.7618 6.631C37.2124 6.57033 37.5461 6.50967 37.7628 6.449C37.9794 6.38833 38.1788 6.32333 38.3608 6.254C38.4128 6.254 38.4474 6.267 38.4648 6.293C38.4821 6.31033 38.4994 6.332 38.5168 6.358C38.5514 6.42733 38.5731 6.566 38.5818 6.774C38.5991 6.982 38.6121 7.17267 38.6208 7.346C38.6208 7.40667 38.6338 7.43267 38.6598 7.424C38.6944 7.41533 38.7334 7.38933 38.7768 7.346Z" fill="black"/>
</svg>
