<svg width="129" height="34" viewBox="0 0 129 34" fill="none" xmlns="http://www.w3.org/2000/svg">
<path d="M3.552 5.52C4.016 5.52 4.576 5.512 5.232 5.496C5.904 5.48 6.664 5.472 7.512 5.472C8.664 5.472 9.736 5.688 10.728 6.12C11.736 6.536 12.616 7.12 13.368 7.872C14.136 8.608 14.728 9.472 15.144 10.464C15.576 11.44 15.792 12.488 15.792 13.608C15.792 15.08 15.544 16.304 15.048 17.28C14.568 18.24 13.928 19 13.128 19.56C12.344 20.104 11.496 20.488 10.584 20.712C9.672 20.936 8.792 21.048 7.944 21.048C7.128 21.048 6.448 21.04 5.904 21.024C5.36 21.024 4.912 21.016 4.56 21C4.208 21 3.88 21 3.576 21C3.128 21 2.608 21 2.016 21C1.44 21.016 0.92 21.032 0.456 21.048C0.392 20.968 0.36 20.832 0.36 20.64C0.36 20.448 0.392 20.32 0.456 20.256C1.016 20.224 1.448 20.168 1.752 20.088C2.056 20.008 2.264 19.816 2.376 19.512C2.488 19.208 2.544 18.728 2.544 18.072V8.448C2.544 7.776 2.488 7.296 2.376 7.008C2.264 6.704 2.056 6.512 1.752 6.432C1.448 6.336 1.016 6.28 0.456 6.264C0.392 6.184 0.36 6.048 0.36 5.856C0.36 5.664 0.392 5.536 0.456 5.472C0.936 5.488 1.464 5.504 2.04 5.52C2.616 5.52 3.12 5.52 3.552 5.52ZM4.584 18.984C4.584 19.24 4.64 19.464 4.752 19.656C4.864 19.832 5.104 19.976 5.472 20.088C5.84 20.184 6.416 20.232 7.2 20.232C8.048 20.232 8.848 20.144 9.6 19.968C10.352 19.792 11.016 19.48 11.592 19.032C12.184 18.584 12.648 17.968 12.984 17.184C13.32 16.4 13.488 15.4 13.488 14.184C13.488 13.256 13.368 12.328 13.128 11.4C12.904 10.472 12.52 9.624 11.976 8.856C11.448 8.072 10.744 7.448 9.864 6.984C8.984 6.52 7.896 6.288 6.6 6.288C6.008 6.288 5.52 6.384 5.136 6.576C4.768 6.752 4.584 7.048 4.584 7.464V18.984ZM26.0921 18.768C26.3641 18.784 26.5321 18.912 26.5961 19.152C26.1161 19.776 25.5401 20.28 24.8681 20.664C24.2121 21.048 23.4281 21.24 22.5161 21.24C21.6521 21.24 20.9241 21.104 20.3321 20.832C19.7561 20.56 19.2601 20.184 18.8441 19.704C18.4441 19.24 18.1561 18.704 17.9801 18.096C17.8041 17.472 17.7161 16.824 17.7161 16.152C17.7161 15.24 17.8601 14.432 18.1481 13.728C18.4521 13.024 18.8441 12.44 19.3241 11.976C19.8041 11.496 20.3241 11.136 20.8841 10.896C21.4441 10.64 21.9881 10.512 22.5161 10.512C23.6361 10.512 24.4841 10.72 25.0601 11.136C25.6361 11.552 26.0281 12.08 26.2361 12.72C26.4601 13.36 26.5721 14.016 26.5721 14.688C26.5721 14.96 26.4201 15.096 26.1161 15.096L19.7321 15.048C19.7321 15.736 19.7961 16.36 19.9241 16.92C20.0681 17.464 20.2601 17.936 20.5001 18.336C20.8681 18.944 21.2841 19.384 21.7481 19.656C22.2281 19.928 22.6841 20.064 23.1161 20.064C23.8201 20.064 24.3801 19.96 24.7961 19.752C25.2121 19.544 25.6441 19.216 26.0921 18.768ZM19.8041 14.232L24.1481 14.16C24.3881 14.16 24.5081 14.048 24.5081 13.824C24.5081 13.152 24.4041 12.632 24.1961 12.264C23.9881 11.896 23.7321 11.648 23.4281 11.52C23.1241 11.376 22.8201 11.304 22.5161 11.304C22.3721 11.304 22.1721 11.336 21.9161 11.4C21.6601 11.448 21.3881 11.568 21.1001 11.76C20.8281 11.936 20.5721 12.224 20.3321 12.624C20.0921 13.024 19.9161 13.56 19.8041 14.232ZM35.1984 11.448C35.1344 11.368 35.1024 11.232 35.1024 11.04C35.1024 10.848 35.1344 10.72 35.1984 10.656C35.5024 10.672 35.8464 10.688 36.2304 10.704C36.6144 10.704 37.0064 10.704 37.4064 10.704C37.7264 10.704 38.0224 10.704 38.2944 10.704C38.5824 10.688 38.8464 10.672 39.0864 10.656C39.1664 10.72 39.2064 10.848 39.2064 11.04C39.2064 11.232 39.1664 11.368 39.0864 11.448C38.4144 11.512 37.9584 11.696 37.7184 12C37.4784 12.288 37.2464 12.696 37.0224 13.224L33.8304 20.736C33.6704 21.104 33.4784 21.288 33.2544 21.288C32.9824 21.288 32.7824 21.12 32.6544 20.784L29.5824 13.2C29.4224 12.8 29.2784 12.48 29.1504 12.24C29.0224 12 28.8464 11.824 28.6224 11.712C28.4144 11.584 28.0944 11.496 27.6624 11.448C27.5984 11.368 27.5664 11.232 27.5664 11.04C27.5664 10.848 27.5984 10.72 27.6624 10.656C28.0304 10.672 28.3904 10.688 28.7424 10.704C29.1104 10.704 29.4944 10.704 29.8944 10.704C30.2944 10.704 30.6944 10.704 31.0944 10.704C31.5104 10.688 31.9184 10.672 32.3184 10.656C32.3984 10.72 32.4384 10.848 32.4384 11.04C32.4384 11.232 32.3984 11.368 32.3184 11.448C31.6784 11.528 31.3344 11.672 31.2864 11.88C31.2544 12.088 31.3504 12.48 31.5744 13.056L33.3024 17.688C33.4944 18.184 33.6384 18.44 33.7344 18.456C33.8464 18.472 33.9984 18.24 34.1904 17.76L36.1344 13.056C36.3744 12.448 36.4384 12.04 36.3264 11.832C36.2304 11.624 35.8544 11.496 35.1984 11.448ZM48.1305 21.24C46.4025 21.24 44.9705 20.888 43.8345 20.184C42.6985 19.48 41.8505 18.552 41.2905 17.4C40.7305 16.232 40.4505 14.952 40.4505 13.56C40.4505 12.312 40.6745 11.136 41.1225 10.032C41.5705 8.912 42.1945 7.984 42.9945 7.248C43.6985 6.592 44.4745 6.088 45.3225 5.736C46.1865 5.384 47.1305 5.208 48.1545 5.208C49.1465 5.208 49.9545 5.288 50.5785 5.448C51.2025 5.608 51.7305 5.776 52.1625 5.952C52.5945 6.128 53.0105 6.24 53.4105 6.288C53.5385 6.944 53.6425 7.576 53.7225 8.184C53.8025 8.776 53.8745 9.384 53.9385 10.008C53.8105 10.072 53.6825 10.12 53.5545 10.152C53.4265 10.184 53.2905 10.176 53.1465 10.128C52.9385 9.44 52.6345 8.792 52.2345 8.184C51.8345 7.56 51.2825 7.056 50.5785 6.672C49.8905 6.288 48.9945 6.096 47.8905 6.096C47.2665 6.096 46.6185 6.272 45.9465 6.624C45.2905 6.96 44.6585 7.496 44.0505 8.232C43.6185 8.776 43.2745 9.464 43.0185 10.296C42.7625 11.128 42.6345 12.064 42.6345 13.104C42.6345 13.984 42.7625 14.848 43.0185 15.696C43.2905 16.544 43.6665 17.312 44.1465 18C44.6425 18.688 45.2265 19.24 45.8985 19.656C46.5705 20.056 47.3065 20.256 48.1065 20.256C49.2265 20.256 50.2185 20.056 51.0825 19.656C51.9625 19.24 52.8265 18.568 53.6745 17.64C53.9145 17.64 54.0985 17.76 54.2265 18C53.4105 19.072 52.4825 19.88 51.4425 20.424C50.4025 20.968 49.2985 21.24 48.1305 21.24ZM56.0621 16.08C56.0621 15.328 56.1741 14.616 56.3981 13.944C56.6221 13.256 56.9501 12.656 57.3821 12.144C57.8301 11.632 58.3741 11.224 59.0141 10.92C59.6541 10.616 60.3661 10.464 61.1501 10.464C62.0621 10.464 62.8381 10.624 63.4781 10.944C64.1341 11.264 64.6541 11.696 65.0381 12.24C65.4381 12.768 65.7261 13.352 65.9021 13.992C66.0941 14.616 66.1901 15.24 66.1901 15.864C66.1901 16.6 66.0621 17.328 65.8061 18.048C65.5501 18.752 65.1581 19.368 64.6301 19.896C64.2141 20.296 63.7101 20.624 63.1181 20.88C62.5421 21.12 61.8701 21.24 61.1021 21.24C59.9661 21.24 59.0221 20.984 58.2701 20.472C57.5341 19.944 56.9821 19.288 56.6141 18.504C56.2461 17.704 56.0621 16.896 56.0621 16.08ZM60.7901 11.304C60.0701 11.304 59.5181 11.512 59.1341 11.928C58.7501 12.344 58.4861 12.872 58.3421 13.512C58.1981 14.152 58.1261 14.824 58.1261 15.528C58.1261 15.992 58.1821 16.504 58.2941 17.064C58.4061 17.624 58.5901 18.16 58.8461 18.672C59.1021 19.168 59.4381 19.584 59.8541 19.92C60.2861 20.24 60.8141 20.4 61.4381 20.4C61.8221 20.4 62.2221 20.296 62.6381 20.088C63.0541 19.88 63.4061 19.504 63.6941 18.96C63.9821 18.416 64.1261 17.64 64.1261 16.632C64.1261 14.904 63.8301 13.584 63.2381 12.672C62.6461 11.76 61.8301 11.304 60.7901 11.304ZM71.5879 12.408C72.2919 11.592 72.9719 11.064 73.6279 10.824C74.2999 10.584 74.9319 10.464 75.5239 10.464C75.9399 10.464 76.3239 10.536 76.6759 10.68C77.0279 10.808 77.3079 11.008 77.5159 11.28C77.7879 11.648 77.9639 12.112 78.0439 12.672C78.1239 13.232 78.1639 13.84 78.1639 14.496V18.072C78.1639 18.728 78.2039 19.208 78.2839 19.512C78.3639 19.8 78.5159 19.984 78.7399 20.064C78.9799 20.144 79.3239 20.208 79.7719 20.256C79.8359 20.32 79.8679 20.448 79.8679 20.64C79.8679 20.832 79.8359 20.968 79.7719 21.048C79.4199 21.032 79.0279 21.016 78.5959 21C78.1639 21 77.7079 21 77.2279 21C76.7479 21 76.3079 21 75.9079 21C75.5239 21.016 75.1479 21.032 74.7799 21.048C74.7159 20.968 74.6839 20.832 74.6839 20.64C74.6839 20.448 74.7159 20.32 74.7799 20.256C75.1959 20.208 75.5079 20.144 75.7159 20.064C75.9399 19.984 76.0839 19.8 76.1479 19.512C76.2279 19.208 76.2679 18.728 76.2679 18.072V14.424C76.2679 14.056 76.2519 13.72 76.2199 13.416C76.1879 13.096 76.1079 12.816 75.9799 12.576C75.8359 12.304 75.6439 12.096 75.4039 11.952C75.1799 11.792 74.9479 11.712 74.7079 11.712C74.2439 11.712 73.7559 11.84 73.2439 12.096C72.7319 12.336 72.2439 12.68 71.7799 13.128C71.6839 13.24 71.5879 13.376 71.4919 13.536C71.4119 13.68 71.3719 13.88 71.3719 14.136V18.072C71.3719 18.728 71.4039 19.208 71.4679 19.512C71.5479 19.8 71.6919 19.984 71.8999 20.064C72.1239 20.144 72.4359 20.208 72.8359 20.256C72.9159 20.32 72.9559 20.448 72.9559 20.64C72.9559 20.832 72.9159 20.968 72.8359 21.048C72.4839 21.032 72.1159 21.016 71.7319 21C71.3479 21 70.9159 21 70.4359 21C69.9559 21 69.4839 21 69.0199 21C68.5719 21.016 68.1639 21.032 67.7959 21.048C67.7319 20.968 67.6999 20.832 67.6999 20.64C67.6999 20.448 67.7319 20.32 67.7959 20.256C68.2759 20.208 68.6359 20.144 68.8759 20.064C69.1159 19.984 69.2759 19.8 69.3559 19.512C69.4359 19.208 69.4759 18.728 69.4759 18.072V13.392C69.4759 12.928 69.4359 12.592 69.3559 12.384C69.2759 12.16 69.1239 12.008 68.8999 11.928C68.6759 11.848 68.3479 11.792 67.9159 11.76C67.8999 11.68 67.8839 11.568 67.8679 11.424C67.8519 11.264 67.8519 11.152 67.8679 11.088C68.6999 10.976 69.3159 10.864 69.7159 10.752C70.1159 10.64 70.4839 10.52 70.8199 10.392C70.9159 10.392 70.9799 10.416 71.0119 10.464C71.0439 10.496 71.0759 10.536 71.1079 10.584C71.1719 10.712 71.2119 10.968 71.2279 11.352C71.2599 11.736 71.2839 12.088 71.2999 12.408C71.2999 12.52 71.3239 12.568 71.3719 12.552C71.4359 12.536 71.5079 12.488 71.5879 12.408ZM84.5957 12.408C85.2997 11.592 85.9797 11.064 86.6357 10.824C87.3077 10.584 87.9397 10.464 88.5317 10.464C88.9477 10.464 89.3317 10.536 89.6837 10.68C90.0357 10.808 90.3157 11.008 90.5237 11.28C90.7957 11.648 90.9717 12.112 91.0517 12.672C91.1317 13.232 91.1717 13.84 91.1717 14.496V18.072C91.1717 18.728 91.2117 19.208 91.2917 19.512C91.3717 19.8 91.5237 19.984 91.7477 20.064C91.9877 20.144 92.3317 20.208 92.7797 20.256C92.8437 20.32 92.8757 20.448 92.8757 20.64C92.8757 20.832 92.8437 20.968 92.7797 21.048C92.4277 21.032 92.0357 21.016 91.6037 21C91.1717 21 90.7157 21 90.2357 21C89.7557 21 89.3157 21 88.9157 21C88.5317 21.016 88.1557 21.032 87.7877 21.048C87.7237 20.968 87.6917 20.832 87.6917 20.64C87.6917 20.448 87.7237 20.32 87.7877 20.256C88.2037 20.208 88.5157 20.144 88.7237 20.064C88.9477 19.984 89.0917 19.8 89.1557 19.512C89.2357 19.208 89.2757 18.728 89.2757 18.072V14.424C89.2757 14.056 89.2597 13.72 89.2277 13.416C89.1957 13.096 89.1157 12.816 88.9877 12.576C88.8437 12.304 88.6517 12.096 88.4117 11.952C88.1877 11.792 87.9557 11.712 87.7157 11.712C87.2517 11.712 86.7637 11.84 86.2517 12.096C85.7397 12.336 85.2517 12.68 84.7877 13.128C84.6917 13.24 84.5957 13.376 84.4997 13.536C84.4197 13.68 84.3797 13.88 84.3797 14.136V18.072C84.3797 18.728 84.4117 19.208 84.4757 19.512C84.5557 19.8 84.6997 19.984 84.9077 20.064C85.1317 20.144 85.4437 20.208 85.8437 20.256C85.9237 20.32 85.9637 20.448 85.9637 20.64C85.9637 20.832 85.9237 20.968 85.8437 21.048C85.4917 21.032 85.1237 21.016 84.7397 21C84.3557 21 83.9237 21 83.4437 21C82.9637 21 82.4917 21 82.0277 21C81.5797 21.016 81.1717 21.032 80.8037 21.048C80.7397 20.968 80.7077 20.832 80.7077 20.64C80.7077 20.448 80.7397 20.32 80.8037 20.256C81.2837 20.208 81.6437 20.144 81.8837 20.064C82.1237 19.984 82.2837 19.8 82.3637 19.512C82.4437 19.208 82.4837 18.728 82.4837 18.072V13.392C82.4837 12.928 82.4437 12.592 82.3637 12.384C82.2837 12.16 82.1317 12.008 81.9077 11.928C81.6837 11.848 81.3557 11.792 80.9237 11.76C80.9077 11.68 80.8917 11.568 80.8757 11.424C80.8597 11.264 80.8597 11.152 80.8757 11.088C81.7077 10.976 82.3237 10.864 82.7237 10.752C83.1237 10.64 83.4917 10.52 83.8277 10.392C83.9237 10.392 83.9877 10.416 84.0197 10.464C84.0517 10.496 84.0837 10.536 84.1157 10.584C84.1797 10.712 84.2197 10.968 84.2357 11.352C84.2677 11.736 84.2917 12.088 84.3077 12.408C84.3077 12.52 84.3317 12.568 84.3797 12.552C84.4437 12.536 84.5157 12.488 84.5957 12.408ZM102.452 18.768C102.724 18.784 102.892 18.912 102.956 19.152C102.476 19.776 101.9 20.28 101.228 20.664C100.572 21.048 99.7875 21.24 98.8755 21.24C98.0115 21.24 97.2835 21.104 96.6915 20.832C96.1155 20.56 95.6195 20.184 95.2035 19.704C94.8035 19.24 94.5155 18.704 94.3395 18.096C94.1635 17.472 94.0755 16.824 94.0755 16.152C94.0755 15.24 94.2195 14.432 94.5075 13.728C94.8115 13.024 95.2035 12.44 95.6835 11.976C96.1635 11.496 96.6835 11.136 97.2435 10.896C97.8035 10.64 98.3475 10.512 98.8755 10.512C99.9955 10.512 100.844 10.72 101.42 11.136C101.996 11.552 102.388 12.08 102.596 12.72C102.82 13.36 102.932 14.016 102.932 14.688C102.932 14.96 102.78 15.096 102.476 15.096L96.0915 15.048C96.0915 15.736 96.1555 16.36 96.2835 16.92C96.4275 17.464 96.6195 17.936 96.8595 18.336C97.2275 18.944 97.6435 19.384 98.1075 19.656C98.5875 19.928 99.0435 20.064 99.4755 20.064C100.18 20.064 100.74 19.96 101.156 19.752C101.572 19.544 102.004 19.216 102.452 18.768ZM96.1635 14.232L100.508 14.16C100.748 14.16 100.868 14.048 100.868 13.824C100.868 13.152 100.764 12.632 100.556 12.264C100.348 11.896 100.092 11.648 99.7875 11.52C99.4835 11.376 99.1795 11.304 98.8755 11.304C98.7315 11.304 98.5315 11.336 98.2755 11.4C98.0195 11.448 97.7475 11.568 97.4595 11.76C97.1875 11.936 96.9315 12.224 96.6915 12.624C96.4515 13.024 96.2755 13.56 96.1635 14.232ZM113.638 18.816C113.046 19.792 112.422 20.44 111.766 20.76C111.126 21.08 110.446 21.24 109.726 21.24C108.222 21.24 107.054 20.76 106.222 19.8C105.39 18.824 104.974 17.56 104.974 16.008C104.974 14.872 105.214 13.888 105.694 13.056C106.19 12.224 106.814 11.584 107.566 11.136C108.334 10.688 109.11 10.464 109.894 10.464C111.046 10.464 111.942 10.68 112.582 11.112C113.238 11.544 113.566 12.088 113.566 12.744C113.566 13.112 113.43 13.384 113.158 13.56C112.902 13.72 112.646 13.8 112.39 13.8C112.134 13.8 111.926 13.736 111.766 13.608C111.606 13.48 111.51 13.256 111.478 12.936C111.446 12.648 111.382 12.376 111.286 12.12C111.206 11.864 111.054 11.656 110.83 11.496C110.606 11.336 110.254 11.256 109.774 11.256C108.99 11.256 108.334 11.632 107.806 12.384C107.294 13.12 107.038 14.152 107.038 15.48C107.038 16.408 107.182 17.216 107.47 17.904C107.774 18.592 108.166 19.128 108.646 19.512C109.142 19.88 109.678 20.064 110.254 20.064C110.766 20.064 111.27 19.936 111.766 19.68C112.278 19.408 112.734 19.008 113.134 18.48C113.39 18.512 113.558 18.624 113.638 18.816ZM115.384 10.704H116.488C116.488 10.032 116.48 9.52 116.464 9.168C116.464 8.816 116.456 8.568 116.44 8.424C116.44 8.264 116.432 8.16 116.416 8.112C116.416 8.048 116.416 7.984 116.416 7.92C116.416 7.84 116.464 7.776 116.56 7.728C116.672 7.68 116.8 7.632 116.944 7.584C117.216 7.504 117.488 7.392 117.76 7.248C118.016 7.104 118.192 7.032 118.288 7.032C118.416 7.032 118.48 7.104 118.48 7.248C118.48 7.248 118.464 7.472 118.432 7.92C118.4 8.368 118.384 8.984 118.384 9.768V10.704H121.264C121.392 10.704 121.456 10.752 121.456 10.848V11.328C121.456 11.44 121.392 11.52 121.264 11.568C121.136 11.616 121.008 11.64 120.88 11.64H118.384V17.712C118.384 18.448 118.432 19 118.528 19.368C118.64 19.736 118.856 19.92 119.176 19.92C119.496 19.92 119.824 19.872 120.16 19.776C120.512 19.664 120.84 19.488 121.144 19.248C121.384 19.264 121.528 19.4 121.576 19.656C121.112 20.184 120.592 20.584 120.016 20.856C119.456 21.112 118.896 21.24 118.336 21.24C117.792 21.24 117.344 21.056 116.992 20.688C116.656 20.32 116.488 19.712 116.488 18.864V11.64H115.072C114.992 11.64 114.952 11.592 114.952 11.496V11.184C114.952 11.088 114.984 10.984 115.048 10.872C115.112 10.76 115.224 10.704 115.384 10.704Z" fill="black"/>
</svg>
