<svg width="24" height="24" viewBox="0 0 24 24" fill="none" xmlns="http://www.w3.org/2000/svg">
<path d="M21.5 2H2.5C2.36739 2 2.24021 2.05268 2.14645 2.14645C2.05268 2.24021 2 2.36739 2 2.5V21.5C2 21.6326 2.05268 21.7598 2.14645 21.8536C2.24021 21.9473 2.36739 22 2.5 22H21.5C21.6326 22 21.7598 21.9473 21.8536 21.8536C21.9473 21.7598 22 21.6326 22 21.5V2.5C22 2.36739 21.9473 2.24021 21.8536 2.14645C21.7598 2.05268 21.6326 2 21.5 2ZM8.5 21H3V15.5H8.5V21ZM8.5 14.5H3V9.5H8.5V14.5ZM8.5 8.5H3V3H8.5V8.5ZM14.5 21H9.5V15.5H14.5V21ZM14.5 14.5H9.5V9.5H14.5V14.5ZM14.5 8.5H9.5V3H14.5V8.5ZM21 21H15.5V15.5H21V21ZM21 14.5H15.5V9.5H21V14.5ZM21 8.5H15.5V3H21V8.5Z" fill="black"/>
</svg>
